<svg width="18" height="18" fill="none" xmlns="http://www.w3.org/2000/svg"><path fill-rule="evenodd" clip-rule="evenodd" d="M2.333 12.333V14a3.333 3.333 0 003.333 3.333H14A3.332 3.332 0 0017.333 14V4A3.333 3.333 0 0014 .667H5.666A3.333 3.333 0 002.333 4v1.667a.834.834 0 001.667 0V4c0-.92.747-1.667 1.667-1.667H14c.92 0 1.666.747 1.666 1.667v10c0 .92-.745 1.667-1.666 1.667H5.666C4.746 15.667 4 14.92 4 14v-1.667a.834.834 0 00-1.667 0zm6.322-4.166L7.577 7.09a.834.834 0 011.178-1.18l2.5 2.5a.833.833 0 010 1.18l-2.5 2.5a.834.834 0 01-1.178-1.18l1.078-1.077H1.5a.834.834 0 010-1.666h7.155z" fill="#84BE51"/></svg>