<svg width="18" height="20" viewBox="0 0 18 20" fill="none" xmlns="http://www.w3.org/2000/svg">
<path d="M7.59805 18.7979C7.58477 18.716 7.57865 18.6332 7.57972 18.5504L7.57972 4.44077L7.43662 4.74843C7.29428 5.04917 7.10056 5.32275 6.86422 5.55694L2.90754 9.51363C2.41009 10.0347 1.60985 10.1223 1.01148 9.72112C0.373835 9.25422 0.235387 8.35882 0.702292 7.72113C0.740035 7.66962 0.781176 7.62065 0.825447 7.57464L7.9804 0.419694C8.53893 -0.139465 9.44497 -0.139957 10.0041 0.418576C10.0045 0.418933 10.0049 0.419336 10.0052 0.419694L17.1602 7.57464C17.7182 8.13424 17.717 9.04028 17.1574 9.59837C17.1133 9.64228 17.0665 9.68329 17.0171 9.72112C16.4187 10.1223 15.6185 10.0347 15.121 9.51363L11.1572 5.5641C10.947 5.35415 10.7708 5.11275 10.6349 4.8486L10.4417 4.41931V18.4716C10.4688 19.2026 9.9582 19.844 9.23967 19.9813C8.45955 20.1078 7.72461 19.578 7.59805 18.7979Z" fill="white"/>
</svg>
